<svg width="16" height="6" viewBox="0 0 16 6" fill="none" xmlns="http://www.w3.org/2000/svg">
<path d="M2.13333 0.866699C0.957067 0.866699 0 1.82377 0 3.00003C0 4.1763 0.957067 5.13337 2.13333 5.13337C3.3096 5.13337 4.26667 4.1763 4.26667 3.00003C4.26667 1.82377 3.3096 0.866699 2.13333 0.866699ZM2.13333 4.60003C1.25093 4.60003 0.533333 3.88243 0.533333 3.00003C0.533333 2.11763 1.25093 1.40003 2.13333 1.40003C3.01573 1.40003 3.73333 2.11763 3.73333 3.00003C3.73333 3.88243 3.01573 4.60003 2.13333 4.60003Z" fill="black"/>
<path d="M13.8658 0.866699C12.6895 0.866699 11.7324 1.82377 11.7324 3.00003C11.7324 4.1763 12.6895 5.13337 13.8658 5.13337C15.042 5.13337 15.9991 4.1763 15.9991 3.00003C15.9991 1.82377 15.042 0.866699 13.8658 0.866699ZM13.8658 4.60003C12.9834 4.60003 12.2658 3.88243 12.2658 3.00003C12.2658 2.11763 12.9834 1.40003 13.8658 1.40003C14.7482 1.40003 15.4658 2.11763 15.4658 3.00003C15.4658 3.88243 14.7482 4.60003 13.8658 4.60003Z" fill="black"/>
<path d="M8.00052 0.866699C6.82425 0.866699 5.86719 1.82377 5.86719 3.00003C5.86719 4.1763 6.82425 5.13337 8.00052 5.13337C9.17679 5.13337 10.1339 4.1763 10.1339 3.00003C10.1339 1.82377 9.17679 0.866699 8.00052 0.866699ZM8.00052 4.60003C7.11812 4.60003 6.40052 3.88243 6.40052 3.00003C6.40052 2.11763 7.11812 1.40003 8.00052 1.40003C8.88292 1.40003 9.60052 2.11763 9.60052 3.00003C9.60052 3.88243 8.88292 4.60003 8.00052 4.60003Z" fill="black"/>
</svg>
