<svg width="16" height="16" viewBox="0 0 16 16" fill="none" xmlns="http://www.w3.org/2000/svg">
<g clip-path="url(#clip0_946_905)">
<path d="M12.6451 9.91149C12.3176 9.57043 11.9225 9.38807 11.5037 9.38807C11.0884 9.38807 10.6899 9.56705 10.3488 9.90812L9.28172 10.9718C9.19392 10.9246 9.10612 10.8807 9.0217 10.8368C8.90013 10.776 8.78532 10.7186 8.68739 10.6578C7.68782 10.0229 6.77943 9.19559 5.90819 8.12511C5.48608 7.59156 5.20242 7.14243 4.99643 6.68654C5.27333 6.43328 5.52998 6.16988 5.77987 5.91661C5.87442 5.82206 5.96898 5.72412 6.06353 5.62957C6.77268 4.92042 6.77268 4.0019 6.06353 3.29275L5.14163 2.37085C5.03695 2.26617 4.92889 2.15811 4.82758 2.05005C4.62497 1.84068 4.41222 1.62456 4.19272 1.42194C3.86516 1.09776 3.47344 0.925537 3.06146 0.925537C2.64947 0.925537 2.251 1.09776 1.91331 1.42194C1.90993 1.42532 1.90993 1.42532 1.90655 1.4287L0.758404 2.58698C0.326159 3.01922 0.0796448 3.54602 0.0256142 4.15724C-0.0554316 5.1433 0.234983 6.06182 0.457859 6.66291C1.00492 8.13862 1.82213 9.50626 3.04119 10.9718C4.52028 12.738 6.29991 14.1326 8.33281 15.1153C9.1095 15.4834 10.1462 15.919 11.3045 15.9933C11.3754 15.9967 11.4497 16.0001 11.5172 16.0001C12.2973 16.0001 12.9524 15.7198 13.4657 15.1626C13.4691 15.1558 13.4758 15.1525 13.4792 15.1457C13.6548 14.933 13.8574 14.7405 14.0702 14.5345C14.2154 14.396 14.364 14.2508 14.5092 14.0989C14.8435 13.751 15.0191 13.3458 15.0191 12.9304C15.0191 12.5117 14.8401 12.1099 14.499 11.7722L12.6451 9.91149ZM13.8541 13.4674C13.8507 13.4674 13.8507 13.4708 13.8541 13.4674C13.7224 13.6092 13.5873 13.7375 13.4421 13.8794C13.2226 14.0887 12.9997 14.3082 12.7903 14.5547C12.4493 14.9194 12.0474 15.0917 11.5206 15.0917C11.47 15.0917 11.4159 15.0917 11.3653 15.0883C10.3623 15.0241 9.43031 14.6324 8.73129 14.2981C6.81996 13.3728 5.14163 12.0592 3.74697 10.3944C2.59544 9.00648 1.82551 7.72326 1.31559 6.34548C1.00154 5.50463 0.886726 4.84951 0.93738 4.23153C0.971149 3.83643 1.12311 3.50887 1.40339 3.22859L2.55492 2.07706C2.72039 1.92173 2.89599 1.8373 3.06821 1.8373C3.28096 1.8373 3.45318 1.96563 3.56124 2.07369C3.56462 2.07706 3.56799 2.08044 3.57137 2.08382C3.77736 2.2763 3.97322 2.47554 4.17921 2.68828C4.2839 2.79634 4.39196 2.90441 4.50002 3.01584L5.42192 3.93774C5.77987 4.29569 5.77987 4.62663 5.42192 4.98458C5.32399 5.08251 5.22943 5.18044 5.1315 5.275C4.84784 5.56541 4.57769 5.83556 4.2839 6.09896C4.27714 6.10572 4.27039 6.10909 4.26701 6.11585C3.9766 6.40626 4.03063 6.68992 4.09141 6.8824C4.09479 6.89254 4.09817 6.90267 4.10154 6.9128C4.3413 7.49363 4.679 8.04069 5.19229 8.69243L5.19566 8.69581C6.12769 9.84396 7.11037 10.7388 8.19436 11.4243C8.33281 11.5121 8.47464 11.5831 8.60972 11.6506C8.73129 11.7114 8.8461 11.7688 8.94403 11.8296C8.95754 11.8363 8.97105 11.8465 8.98456 11.8532C9.09937 11.9106 9.20743 11.9376 9.31887 11.9376C9.59915 11.9376 9.77475 11.762 9.83216 11.7046L10.9871 10.5497C11.1019 10.4349 11.2842 10.2965 11.497 10.2965C11.7063 10.2965 11.8786 10.4282 11.9833 10.543C11.9866 10.5464 11.9866 10.5464 11.99 10.5497L13.8507 12.4104C14.1985 12.7549 14.1985 13.1094 13.8541 13.4674Z" fill="black"/>
<path d="M8.64674 3.80597C9.53149 3.95456 10.3352 4.37329 10.9768 5.01491C11.6184 5.65652 12.0338 6.46022 12.1857 7.34497C12.2229 7.56785 12.4154 7.72319 12.6349 7.72319C12.6619 7.72319 12.6855 7.71981 12.7125 7.71643C12.9624 7.67591 13.1279 7.43953 13.0874 7.18964C12.905 6.11916 12.3985 5.14323 11.6252 4.36992C10.8519 3.5966 9.87593 3.09007 8.80545 2.90771C8.55556 2.86719 8.32255 3.03266 8.27865 3.27917C8.23475 3.52569 8.39684 3.76545 8.64674 3.80597Z" fill="black"/>
<path d="M15.9809 7.05794C15.6804 5.29519 14.8496 3.69116 13.5732 2.41469C12.2967 1.13821 10.6927 0.307495 8.92991 0.00695018C8.6834 -0.0369496 8.45039 0.131896 8.40649 0.37841C8.36597 0.628302 8.53144 0.861308 8.78133 0.905208C10.355 1.17198 11.7902 1.91828 12.9315 3.0563C14.0729 4.19769 14.8159 5.63288 15.0826 7.20652C15.1198 7.4294 15.3123 7.58473 15.5318 7.58473C15.5588 7.58473 15.5824 7.58136 15.6094 7.57798C15.856 7.54084 16.0248 7.30445 15.9809 7.05794Z" fill="black"/>
</g>
<defs>
<clipPath id="clip0_946_905">
<rect width="16" height="16" fill="white"/>
</clipPath>
</defs>
</svg>
