<svg width="16" height="20" viewBox="0 0 16 20" fill="none" xmlns="http://www.w3.org/2000/svg">
<path d="M12.6259 12.9868C12.61 12.9851 10.3078 13.053 9.96547 10.5859C10.3458 10.3205 10.6964 9.97602 11.0052 9.55797C11.606 8.74469 11.9931 7.72445 12.131 6.6209C12.1784 6.57805 12.2176 6.52473 12.244 6.46187C12.4935 5.86754 12.62 5.23293 12.62 4.57559C12.62 2.05262 10.7168 0 8.37738 0C7.76555 0 7.17195 0.140937 6.61133 0.419258C6.39746 0.435586 6.18789 0.473203 5.98691 0.53125C5.02609 0.808867 4.24422 1.52125 3.78527 2.53727C3.33973 3.52375 3.25191 4.68504 3.53809 5.80727C3.59855 6.04434 3.67543 6.2773 3.7666 6.49988C3.79129 6.56008 3.82809 6.61145 3.87227 6.65371C4.09562 8.37617 4.9152 9.80332 6.0327 10.5825C5.68934 13.0538 3.38793 12.9852 3.37207 12.9869C1.71652 13.0431 0.386719 14.4065 0.386719 16.0755V19.5497C0.386719 19.7984 0.58832 20 0.837031 20H4.79137H11.2065H15.1609C15.4096 20 15.6112 19.7984 15.6112 19.5497V16.0755C15.6112 14.4064 14.2815 13.043 12.6259 12.9868ZM6.23695 1.39652C6.40129 1.34902 6.57484 1.32086 6.75281 1.31285C6.81887 1.30988 6.88344 1.29242 6.94199 1.26164C7.39789 1.02211 7.88086 0.900664 8.37742 0.900664C10.2202 0.900664 11.7194 2.54922 11.7194 4.57559C11.7194 4.63641 11.7177 4.69691 11.715 4.75719C11.3576 4.39422 10.861 4.16863 10.3126 4.16863H7.2434C7.06078 4.16863 6.88746 4.11129 6.74211 4.00277C6.61801 3.91016 6.52207 3.78566 6.46477 3.64277C6.37602 3.42176 6.15719 3.28352 5.91898 3.29848C5.67992 3.31371 5.47875 3.47973 5.41836 3.71172C5.24051 4.39516 4.88586 5.02469 4.3993 5.5352C3.94656 3.67195 4.76363 1.82219 6.23695 1.39652ZM5.84516 9.18516C5.25918 8.4693 4.87543 7.50262 4.75379 6.4443C5.32203 5.93785 5.77125 5.30762 6.06371 4.60855C6.10809 4.64949 6.15469 4.6882 6.20336 4.72457C6.50555 4.95008 6.86516 5.06934 7.24344 5.06934H10.3126C10.7469 5.06934 11.1212 5.3298 11.2882 5.70258C11.2882 5.70578 11.2877 5.70883 11.2877 5.71203C11.2877 8.25414 9.8127 10.3223 7.99965 10.3223C7.21059 10.3223 6.44539 9.91848 5.84516 9.18516ZM6.87988 11.0247C7.23688 11.1539 7.61238 11.223 7.99965 11.223C8.38383 11.223 8.75918 11.1561 9.11852 11.0271C9.2834 11.8861 9.76101 12.6348 10.4282 13.1503L8.06352 16.5178C8.04809 16.5398 8.02664 16.5509 7.99977 16.5509C7.97293 16.5509 7.95148 16.5397 7.93609 16.5178L5.57086 13.1495C6.23805 12.6335 6.71551 11.8843 6.87988 11.0247ZM14.7105 19.0993H11.2065H4.79137H1.28734V16.0754C1.28734 14.8675 2.27004 13.8848 3.47793 13.8848C3.49434 13.8848 4.21898 13.8672 4.79156 13.607L7.19895 17.0354C7.38191 17.296 7.68129 17.4516 7.99973 17.4516C7.99973 17.4516 7.99973 17.4516 7.99977 17.4516C8.31816 17.4516 8.61758 17.296 8.80055 17.0354L11.2075 13.6075C11.8605 13.8848 12.5036 13.8848 12.52 13.8848C13.7279 13.8848 14.7105 14.8675 14.7105 16.0754V19.0993Z" fill="black"/>
</svg>
